<svg width="49" height="48" viewBox="0 0 49 48" fill="none" xmlns="http://www.w3.org/2000/svg">
<path d="M18.5 38C8.5 41 8.5 33 4.5 32M32.5 44V36.26C32.575 35.3063 32.4462 34.3476 32.122 33.4476C31.7979 32.5476 31.2859 31.7268 30.62 31.04C36.9 30.34 43.5 27.96 43.5 17.04C43.4995 14.2477 42.4254 11.5624 40.5 9.54C41.4117 7.09701 41.3472 4.3967 40.32 2C40.32 2 37.96 1.3 32.5 4.96C27.916 3.71764 23.084 3.71764 18.5 4.96C13.04 1.3 10.68 2 10.68 2C9.65275 4.3967 9.58829 7.09701 10.5 9.54C8.56025 11.5774 7.48505 14.2869 7.5 17.1C7.5 27.94 14.1 30.32 20.38 31.1C19.722 31.7799 19.2145 32.5908 18.8906 33.4798C18.5667 34.3689 18.4336 35.3161 18.5 36.26V44" stroke="#E38000" stroke-width="2" stroke-linecap="round" stroke-linejoin="round"/>
</svg>
