<svg width="49" height="48" viewBox="0 0 49 48" fill="none" xmlns="http://www.w3.org/2000/svg">
<path d="M34.5 4H14.5C8.97715 4 4.5 8.47715 4.5 14V34C4.5 39.5228 8.97715 44 14.5 44H34.5C40.0228 44 44.5 39.5228 44.5 34V14C44.5 8.47715 40.0228 4 34.5 4Z" stroke="#E38000" stroke-width="2" stroke-linecap="round" stroke-linejoin="round"/>
<path d="M32.5 22.74C32.7468 24.4045 32.4625 26.1044 31.6875 27.598C30.9125 29.0916 29.6863 30.3028 28.1833 31.0593C26.6802 31.8159 24.9769 32.0792 23.3156 31.8119C21.6543 31.5445 20.1195 30.7602 18.9297 29.5703C17.7399 28.3805 16.9555 26.8457 16.6882 25.1844C16.4208 23.5231 16.6842 21.8198 17.4407 20.3167C18.1972 18.8137 19.4084 17.5875 20.902 16.8125C22.3956 16.0375 24.0955 15.7532 25.76 16C27.4579 16.2518 29.0297 17.0429 30.2434 18.2566C31.4571 19.4703 32.2483 21.0421 32.5 22.74Z" stroke="#E38000" stroke-width="2" stroke-linecap="round" stroke-linejoin="round"/>
<path d="M35.5 13H35.52" stroke="#E38000" stroke-width="2" stroke-linecap="round" stroke-linejoin="round"/>
</svg>
